# Blender 5.0.1
# www.blender.org
mtllib spaceship.mtl
o Spaceship.001
v -0.996822 1.246027 -1.246027
v -0.996822 -1.744438 -1.246027
v -2.990465 -3.239671 -1.246027
v 8.971395 -0.249205 -1.246027
v -2.990465 2.741260 -1.246027
v -0.996822 1.246027 -1.246027
v -0.996822 1.246027 1.246027
v -0.996822 -1.744438 1.246027
v -2.990465 -3.239671 1.246027
v 8.971395 -0.249205 1.246027
v -2.990465 2.741260 1.246027
v -0.996822 1.246027 1.246027
vn -0.0000 -0.0000 -1.0000
vn -0.0000 -0.0000 1.0000
vn -0.6000 -0.8000 -0.0000
vn 0.2425 -0.9701 -0.0000
vn -1.0000 -0.0000 -0.0000
vn 0.2425 0.9701 -0.0000
vn -0.6000 0.8000 -0.0000
s 0
usemtl Spaceship_Mat
f 1//1 5//1 4//1
f 7//2 10//2 11//2
f 6//3 11//3 5//3
f 4//4 9//4 3//4
f 2//5 7//5 1//5
f 5//6 10//6 4//6
f 3//7 8//7 2//7
f 6//2 7//2 12//2
f 4//1 3//1 2//1
f 1//2 6//2 5//2
f 4//1 2//1 1//1
f 8//2 9//2 10//2
f 11//2 12//2 7//2
f 7//2 8//2 10//2
f 6//3 12//3 11//3
f 4//4 10//4 9//4
f 2//5 8//5 7//5
f 5//6 11//6 10//6
f 3//7 9//7 8//7
f 6//2 1//2 7//2
